squats_1_grf
version=1
nRows=37
nColumns=19
inDegrees=no
endheader
time	ground_force_right_vx	ground_force_right_vy	ground_force_right_vz	ground_force_right_px	ground_force_right_py	ground_force_right_pz	ground_force_right_mx	ground_force_right_my	ground_force_right_mz	ground_force_left_vx	ground_force_left_vy	ground_force_left_vz	ground_force_left_px	ground_force_left_py	ground_force_left_pz	ground_force_left_mx	ground_force_left_my	ground_force_left_mz
     33.47800000	      6.69131360	    471.24079681	     24.47386909	     -3.49400700	      0.00729406	      2.28711029	     -0.03637445	     12.47914810	      0.05650248	     -8.70697986	    442.94490602	    -34.15580588	     -3.52009801	      0.00779736	      2.67863279	      0.03524371	    -10.60756957	      0.01841981
     33.47900000	      6.81903777	    471.14335227	     24.61430990	     -3.49401066	      0.00729421	      2.28707547	     -0.03637302	     12.47865868	      0.05650026	     -8.71786708	    442.91976027	    -34.30582126	     -3.52009164	      0.00779739	      2.67863931	      0.03521935	    -10.60023656	      0.01840708
     33.48000000	      6.96419406	    471.00441901	     24.75871768	     -3.49401816	      0.00729435	      2.28703849	     -0.03637049	     12.47778933	      0.05649632	     -8.71749486	    442.86569358	    -34.45637490	     -3.52008933	      0.00779741	      2.67864695	      0.03519298	    -10.59230195	      0.01839330
     33.48100000	      7.12638579	    470.82449838	     24.90662606	     -3.49402939	      0.00729450	      2.28699946	     -0.03636680	     12.47652253	      0.05649059	     -8.70568814	    442.78326114	    -34.60727449	     -3.52009097	      0.00779742	      2.67865566	      0.03516462	    -10.58376601	      0.01837848
     33.48200000	      7.30512717	    470.60421979	     25.05758478	     -3.49404423	      0.00729464	      2.28695852	     -0.03636190	     12.47484117	      0.05648298	     -8.68231583	    442.67312520	    -34.75832255	     -3.52009645	      0.00779742	      2.67866533	      0.03513428	    -10.57463318	      0.01836262
     33.48300000	      7.49984594	    470.34433296	     25.21116212	     -3.49406254	      0.00729478	      2.28691581	     -0.03635574	     12.47272873	      0.05647341	     -8.64729439	    442.53604908	    -34.90931544	     -3.52010566	      0.00779741	      2.67867590	      0.03510198	    -10.56491234	      0.01834574
     33.48400000	      7.70988639	    470.04569957	     25.36694690	     -3.49408419	      0.00729492	      2.28687144	     -0.03634828	     12.47016947	      0.05646182	     -8.60059102	    442.37289062	    -35.06004249	     -3.52011846	      0.00779738	      2.67868726	      0.03506777	    -10.55461680	      0.01832786
     33.48500000	      7.93451293	    469.70928424	     25.52455000	     -3.49410903	      0.00729505	      2.28682555	     -0.03633947	     12.46714871	      0.05644815	     -8.54222667	    442.18459486	    -35.21028528	     -3.52013470	      0.00779735	      2.67869933	      0.03503172	    -10.54376430	      0.01830902
     33.48600000	      8.17291405	    469.33614501	     25.68360546	     -3.49413689	      0.00729518	      2.28677826	     -0.03632928	     12.46365299	      0.05643232	     -8.47227855	    441.97218634	    -35.35981717	     -3.52015425	      0.00779731	      2.67871201	      0.03499388	    -10.53237692	      0.01828924
     33.48700000	      8.42420684	    468.92742356	     25.84377115	     -3.49416764	      0.00729531	      2.28672969	     -0.03631768	     12.45967034	      0.05641429	     -8.39088232	    441.73676082	    -35.50840302	     -3.52017692	      0.00779726	      2.67872518	      0.03495436	    -10.52048091	      0.01826858
     33.48800000	      8.68744197	    468.48433517	     26.00472911	     -3.49420109	      0.00729544	      2.28667994	     -0.03630462	     12.45519040	      0.05639400	     -8.29823381	    441.47947659	    -35.65579908	     -3.52020256	      0.00779719	      2.67873876	      0.03491324	    -10.50810635	      0.01824710
     33.48900000	      8.96160919	    468.00815864	     26.16618556	     -3.49423708	      0.00729557	      2.28662913	     -0.03629009	     12.45020467	      0.05637143	     -8.19459012	    441.20154548	    -35.80175315	     -3.52023097	      0.00779712	      2.67875262	      0.03487065	    -10.49528682	      0.01822484
     33.49000000	      9.24564328	    467.50022630	     26.32787059	     -3.49427545	      0.00729569	      2.28657735	     -0.03627406	     12.44470656	      0.05634653	     -8.08027028	    440.90422353	    -35.94600494	     -3.52026197	      0.00779705	      2.67876666	      0.03482670	    -10.48205898	      0.01820187
     33.49100000	      9.53843053	    466.96191422	     26.48953769	     -3.49431601	      0.00729581	      2.28652471	     -0.03625653	     12.43869153	      0.05631930	     -7.95565515	    440.58880144	    -36.08828676	     -3.52029534	      0.00779696	      2.67878075	      0.03478153	    -10.46846203	      0.01817826
     33.49200000	      9.83881558	    466.39463287	     26.65096297	     -3.49435860	      0.00729593	      2.28647127	     -0.03623748	     12.43215712	      0.05628971	     -7.82118678	    440.25659500	    -36.22832439	     -3.52033087	      0.00779687	      2.67879477	      0.03473526	    -10.45453713	      0.01815407
     33.49300000	     10.14560881	    465.79981815	     26.81194433	     -3.49440305	      0.00729604	      2.28641713	     -0.03621692	     12.42510288	      0.05625777	     -7.67736708	    439.90893531	    -36.36583833	     -3.52036833	      0.00779677	      2.67880861	      0.03468805	    -10.44032686	      0.01812940
     33.49400000	     10.45759398	    465.17892321	     26.97230034	     -3.49444916	      0.00729616	      2.28636235	     -0.03619485	     12.41753036	      0.05622349	     -7.52475574	    439.54715928	    -36.50054526	     -3.52040749	      0.00779666	      2.67882213	      0.03464003	    -10.42587450	      0.01810430
     33.49500000	     10.77353639	    464.53341093	     27.13186914	     -3.49449678	      0.00729627	      2.28630700	     -0.03617127	     12.40944294	      0.05618687	     -7.36396760	    439.17260008	    -36.63215987	     -3.52044810	      0.00779655	      2.67883522	      0.03459135	    -10.41122344	      0.01807886
     33.49600000	     11.09219118	    463.86474725	     27.29050718	     -3.49454572	      0.00729638	      2.28625114	     -0.03614621	     12.40084575	      0.05614794	     -7.19566916	    438.78657800	    -36.76039692	     -3.52048991	      0.00779643	      2.67884774	      0.03454215	    -10.39641652	      0.01805315
     33.49700000	     11.41231198	    463.17439547	     27.44808807	     -3.49459581	      0.00729649	      2.28619483	     -0.03611969	     12.39174542	      0.05610674	     -7.02057455	    438.39039145	    -36.88497356	     -3.52053266	      0.00779631	      2.67885958	      0.03449258	    -10.38149540	      0.01802724
     33.49800000	     11.73265963	    462.46381142	     27.60450122	     -3.49464688	      0.00729660	      2.28613810	     -0.03609172	     12.38214994	      0.05606329	     -6.83944069	    437.98530848	    -37.00561201	     -3.52057608	      0.00779618	      2.67887061	      0.03444276	    -10.36649995	      0.01800120
     33.49900000	     12.05201103	    461.73443966	     27.75965075	     -3.49469874	      0.00729670	      2.28608101	     -0.03606233	     12.37206842	      0.05601765	     -6.65306188	    437.57255861	    -37.12204237	     -3.52061989	      0.00779605	      2.67888072	      0.03439281	    -10.35146766	      0.01797510
     33.50000000	     12.36916783	    460.98771061	     27.91345419	     -3.49475122	      0.00729681	      2.28602359	     -0.03603156	     12.36151088	      0.05596984	     -6.46226379	    437.15332525	    -37.23400569	     -3.52066384	      0.00779592	      2.67888980	      0.03434286	    -10.33643307	      0.01794899
     33.50100000	     12.68296500	    460.22503856	     28.06584141	     -3.49480415	      0.00729692	      2.28596588	     -0.03599943	     12.35048805	      0.05591994	     -6.26789680	    436.72873862	    -37.34125719	     -3.52070764	      0.00779579	      2.67889774	      0.03429300	    -10.32142733	      0.01792293
     33.50200000	     12.99227910	    459.44782049	     28.21675346	     -3.49485734	      0.00729703	      2.28590791	     -0.03596598	     12.33901111	      0.05586797	     -6.07082901	    436.29986932	    -37.44356957	     -3.52075103	      0.00779566	      2.67890446	      0.03424333	    -10.30647769	      0.01789697
     33.50300000	     13.29603614	    458.65743555	     28.36614161	     -3.49491062	      0.00729713	      2.28584972	     -0.03593123	     12.32709146	      0.05581400	     -5.87193860	    435.86772254	    -37.54073626	     -3.52079374	      0.00779553	      2.67890985	      0.03419392	    -10.29160712	      0.01787115
     33.50400000	     13.59321892	    457.85524515	     28.51396622	     -3.49496381	      0.00729724	      2.28579133	     -0.03589523	     12.31474051	      0.05575808	     -5.67210603	    435.43323297	    -37.63257476	     -3.52083551	      0.00779540	      2.67891386	      0.03414484	    -10.27683397	      0.01784550
     33.50500000	     13.88287371	    457.04259338	     28.66019578	     -3.49501674	      0.00729735	      2.28573279	     -0.03585801	     12.30196946	      0.05570026	     -5.47220577	    434.99726050	    -37.71892974	     -3.52087610	      0.00779527	      2.67891640	      0.03409612	    -10.26217169	      0.01782004
     33.50600000	     14.16411622	    456.22080778	     28.80480581	     -3.49506924	      0.00729747	      2.28567411	     -0.03581959	     12.28878909	      0.05564058	     -5.27309788	    434.56058648	    -37.79967607	     -3.52091528	      0.00779514	      2.67891744	      0.03404780	    -10.24762861	      0.01779478
     33.50700000	     14.43613673	    455.39120028	     28.94777772	     -3.49512112	      0.00729758	      2.28561533	     -0.03578001	     12.27520962	      0.05557909	     -5.07561952	    434.12391091	    -37.87472142	     -3.52095281	      0.00779501	      2.67891693	      0.03399989	    -10.23320781	      0.01776974
     33.50800000	     14.69820431	    454.55506807	     29.08909756	     -3.49517222	      0.00729770	      2.28555648	     -0.03573929	     12.26124063	      0.05551585	     -4.88057634	    433.68785020	    -37.94400867	     -3.52098849	      0.00779489	      2.67891484	      0.03395238	    -10.21890704	      0.01774491
     33.50900000	     14.94967007	    453.71369453	     29.22875469	     -3.49522238	      0.00729782	      2.28549761	     -0.03569746	     12.24689101	      0.05545087	     -4.68873409	    433.25293572	    -38.00751782	     -3.52102215	      0.00779477	      2.67891116	      0.03390524	    -10.20471868	      0.01772027
     33.51000000	     15.18996933	    452.86834987	     29.36674031	     -3.49527141	      0.00729794	      2.28543875	     -0.03565455	     12.23216901	      0.05538422	     -4.50081040	    432.81961299	    -38.06526747	     -3.52105362	      0.00779466	      2.67890589	      0.03385843	    -10.19062987	      0.01769581
     33.51100000	     15.41862284	    452.02029154	     29.50304581	     -3.49531917	      0.00729807	      2.28537994	     -0.03561058	     12.21708236	      0.05531591	     -4.31746689	    432.38824152	    -38.11731583	     -3.52108274	      0.00779455	      2.67889904	      0.03381189	    -10.17662262	      0.01767148
     33.51200000	     15.63523679	    451.17076429	     29.63766121	     -3.49536549	      0.00729820	      2.28532123	     -0.03556556	     12.20163846	      0.05524598	     -4.13930187	    431.95909531	    -38.16376124	     -3.52110941	      0.00779445	      2.67889064	      0.03376554	    -10.16267406	      0.01764726
     33.51300000	     15.83950188	    450.32099979	     29.77057342	     -3.49541021	      0.00729834	      2.28526267	     -0.03551952	     12.18584459	      0.05517447	     -3.96684353	    431.53236396	    -38.20474215	     -3.52113353	      0.00779435	      2.67888073	      0.03371930	    -10.14875672	      0.01762309
     33.51400000	     16.03119128	    449.47221576	     29.90176466	     -3.49545318	      0.00729847	      2.28520431	     -0.03547249	     12.16970817	      0.05510141	     -3.80054392	    431.10815433	    -38.24043658	     -3.52115502	      0.00779426	      2.67886934	      0.03367306	    -10.13483895	      0.01759893
